# xmcd
#
# Track frame offsets:
#	150
#	13142
#	29506
#	50962
#	72521
#	91200
#	113878
#	132077
#	151940
#	172810
#	183851
#	202362
#	218988
#	236921
#	256249
#	274621
#	294515
#
# Disc length: 3980 seconds
#
# Revision: 0
# Processed by: cddbd v1.5.1PL2 Copyright (c) Steve Scherf et al.
# Submitted via: EasyCDDAExtractor 9.0.0.1
#
DISCID=010f8a11
DTITLE=Nas - I am
DYEAR=2004
DGENRE=Rap
TTITLE0=Album Intro
TTITLE1=N.Y. State of Mind Pt II
TTITLE2=Hate Me Now (Feat. Puff Daddy)
TTITLE3=Small World
TTITLE4=Favor for a Favor (Feat. Scarface)
TTITLE5=We Will Survive
TTITLE6=Ghetto Prisoners
TTITLE7=You Won't See Me Tonight
TTITLE8=I Want to Talk to You
TTITLE9=Dr. Knockboot
TTITLE10=Life is What You Make it
TTITLE11=Big Things
TTITLE12=Nas is Like
TTITLE13=K-I-SS-I-N-G
TTITLE14=Money is my Bitch
TTITLE15=Undying Love
TTITLE16=Nature Shines Interlude
EXTD=
EXTT0=
EXTT1=
EXTT2=
EXTT3=
EXTT4=
EXTT5=
EXTT6=
EXTT7=
EXTT8=
EXTT9=
EXTT10=
EXTT11=
EXTT12=
EXTT13=
EXTT14=
EXTT15=
EXTT16=
PLAYORDER=
